:SAMPLES-PER-SECOND 30
:FULLY-SPECIFIED
:DEGREES
157
root  16.36088965 39.4588891 -7.369955318 -4.859200001 -61.60699844 7.203639984
lfemur  -17.34139252 -12.07610035 -1.672643185
ltibia  -1.491570742e-006 -8.364404493e-007 38.33528519
lfoot  5.521815751e-007 -10.22459126 5.68776989
ltoes  -4.250644065 -19.5611806 -102.515957
rfemur  -10.13529778 13.22300053 1.46829772
rtibia  -8.727266732e-007 2.533748784e-007 47.2884903
rfoot  -2.316020982e-006 -21.19889259 -7.033139229
rtoes  5.373923086 19.29304026 -105.8922705
lowerback  6.17166996 3.970330238 1.283319831
upperback  2.133399963 5.309420109 -1.255360007
thorax  -1.013039947 2.64835 -2.363509893
rclavicle  0 -9.442270133e-015 7.951389973e-016
rhumerus  6.340438843 21.21730042 -79.34149933
rradius  -7.782816926e-012 0.001642658608 141.1620026
rwrist  0.002739921212 0.003270594636 -16.99510002
rthumb  -92.93752616 -24.25625642 -97.11982154
rhand  -7.920061211e-032 -33.2840004 9.303460121
rfingers  -90 -7.125020027 -90
lclavicle  0 -9.442270133e-015 7.951389973e-016
lhumerus  11.65849972 0.01398504991 67.15579987
lradius  1.032090038e-011 0.005718162749 143.5899963
lwrist  1.816137865e-011 1.409039812e-011 8.548740387
lthumb  89.89689403 5.08795885 91.16245106
lhand  -1.496451383e-031 -27.76390076 20.11240005
lfingers  90 7.125020027 -90
lowerneck  -3.25432992 8.454609871 -5.889719963
upperneck  16.11470032 11.30509949 3.660539865
head  4.829510212 5.367849827 2.60165
158
root  16.39931146 39.57577803 -7.539488575 -3.90418005 -61.96979904 6.674099922
lfemur  -17.7826004 -11.28590012 -1.746727467
ltibia  -1.491570742e-006 -8.364404493e-007 38.86890411
lfoot  5.521815751e-007 -10.59220409 4.541680336
ltoes  -4.250644065 -19.5611806 -102.515957
rfemur  -10.32180309 13.47819996 1.919801116
rtibia  -8.727266732e-007 2.533748784e-007 46.81980515
rfoot  -2.316020982e-006 -21.47200203 -7.569349766
rtoes  5.373923086 19.29304026 -105.8922705
lowerback  6.138899803 3.825460196 1.451190114
upperback  2.04647994 5.130959988 -1.071589947
thorax  -1.095360041 2.557810068 -2.258909941
rclavicle  0 -9.442270133e-015 7.951389973e-016
rhumerus  6.874379635 21.46990013 -78.65499878
rradius  -7.782816926e-012 0.001642658608 141.4660034
rwrist  0.002739921212 0.003270594636 -17.01026917
rthumb  -92.93752616 -24.25625642 -97.11982154
rhand  -7.920061211e-032 -33.2840004 9.303460121
rfingers  -90 -7.125020027 -90
lclavicle  0 -9.442270133e-015 7.951389973e-016
lhumerus  11.85810184 0.2636324167 66.49659729
lradius  1.032089952e-011 0.005718162749 144.2169952
lwrist  1.816137865e-011 1.409039812e-011 7.894100189
lthumb  89.89689403 5.08795885 91.16245106
lhand  -1.496451383e-031 -27.76390076 20.11240005
lfingers  90 7.125020027 -90
lowerneck  -3.930979967 8.553370476 -5.718910217
upperneck  15.98469925 11.52390099 3.329840183
head  4.92441988 5.469600201 2.515539885
159
root  16.44155547 39.64777669 -7.719866685 -3.063290119 -62.28379822 6.160459995
lfemur  -18.2621994 -10.03610039 -1.960329771
ltibia  -1.491570742e-006 -8.364404493e-007 39.89110184
lfoot  5.521815751e-007 -10.91409874 3.485730171
ltoes  -4.250644065 -19.5611806 -102.515957
rfemur  -10.54040146 13.58300018 2.401308537
rtibia  -8.727266732e-007 2.533748784e-007 46.83720016
rfoot  -2.316020982e-006 -21.75979805 -8.567150116
rtoes  5.373923086 19.29304026 -105.8922705
lowerback  6.076039791 3.66561985 1.648419976
upperback  2.043910027 4.931600094 -0.9466869831
thorax  -1.067139983 2.458699942 -2.22329998
rclavicle  0 -9.442270133e-015 7.951389973e-016
rhumerus  7.482510567 21.69499969 -78.07550049
rradius  -7.782816926e-012 0.001642658608 141.7649994
rwrist  0.002739921212 0.003270594636 -17.0067997
rthumb  -92.93752616 -24.25625642 -97.11982154
rhand  -7.920061211e-032 -33.2840004 9.303460121
rfingers  -90 -7.125020027 -90
lclavicle  0 -9.442270133e-015 7.951389973e-016
lhumerus  12.18440056 0.3792053461 65.8742981
lradius  1.032089952e-011 0.005718162749 144.7480011
lwrist  1.816137865e-011 1.409039812e-011 7.208610058
lthumb  89.89689403 5.08795885 91.16245106
lhand  -1.496451383e-031 -27.76390076 20.11240005
lfingers  90 7.125020027 -90
lowerneck  -4.487170219 8.669650078 -5.36616993
upperneck  15.68220043 11.74389935 2.952130079
head  4.960410118 5.582590103 2.376940012
160
root  16.47980007 39.69933217 -7.89548919 -2.75199008 -62.59009933 5.992770195
lfemur  -18.59588623 -8.774009705 -2.478932858
ltibia  -1.491570742e-006 -8.364404493e-007 41.33948135
lfoot  5.521815751e-007 -11.39239407 2.957280874
ltoes  -4.250644065 -19.5611806 -102.515957
rfemur  -10.60099316 13.61569977 2.764708996
rtibia  -8.727266732e-007 2.533748784e-007 47.23008347
rfoot  -2.316020982e-006 -21.90059471 -9.63711834
rtoes  5.373923086 19.29304026 -105.8922705
lowerback  6.158909798 3.540390015 1.683619976
upperback  2.115659952 4.767930031 -0.8379240036
thorax  -1.05381 2.376689911 -2.124310017
rclavicle  0 -9.442270133e-015 7.951389973e-016
rhumerus  8.117959023 21.80540085 -77.4464035
rradius  -7.782816926e-012 0.001642658608 141.9440002
rwrist  0.002739921212 0.003270594636 -16.90369987
rthumb  -92.93752616 -24.25625642 -97.11982154
rhand  -7.920061211e-032 -33.2840004 9.303460121
rfingers  -90 -7.125020027 -90
lclavicle  0 -9.442270133e-015 7.951389973e-016
lhumerus  12.57700062 0.4282823205 65.42240143
lradius  1.032089778e-011 0.005718162749 145.0570068
lwrist  1.816137865e-011 1.409039812e-011 7.029419899
lthumb  89.89689403 5.08795885 91.16245106
lhand  -1.496451383e-031 -27.76390076 20.11240005
lfingers  90 7.125020027 -90
lowerneck  -4.962039948 8.741359711 -5.057559967
upperneck  15.3302002 11.89590073 2.585259914
head  4.968050003 5.660739899 2.240600109
161
root  16.52564552 39.73311176 -8.072466362 -2.539619923 -62.82109833 5.839210033
lfemur  -18.97239685 -7.774439812 -3.04403019
ltibia  -1.491570742e-006 -8.364404493e-007 43.10609055
lfoot  5.521815751e-007 -11.70069695 2.976280689
ltoes  -4.250644065 -19.5611806 -102.515957
rfemur  -10.61370182 13.52999973 3.182309151
rtibia  -8.727266732e-007 2.533748784e-007 47.86410141
rfoot  -2.316020982e-006 -21.53689575 -10.68490028
rtoes  5.373923086 19.29304026 -105.8922705
lowerback  6.276130199 3.433840036 1.746020079
upperback  2.252840042 4.630380154 -0.6861150265
thorax  -0.9918699861 2.308320045 -1.997300029
rclavicle  0 -9.442270133e-015 7.951389973e-016
rhumerus  8.764431 21.78910065 -76.65270233
rradius  -7.782816926e-012 0.001642658608 141.9779968
rwrist  0.002739921212 0.003270594636 -16.73800087
rthumb  -92.93752616 -24.25625642 -97.11982154
rhand  -7.920061211e-032 -33.2840004 9.303460121
rfingers  -90 -7.125020027 -90
lclavicle  0 -9.442270133e-015 7.951389973e-016
lhumerus  12.93020153 0.1656543911 65.16249847
lradius  1.032089952e-011 0.005718162749 145.276001
lwrist  1.816137865e-011 1.409039812e-011 6.689670086
lthumb  89.89689403 5.08795885 91.16245106
lhand  -1.496451383e-031 -27.76390076 20.11240005
lfingers  90 7.125020027 -90
lowerneck  -5.340370178 8.763609886 -4.967889786
upperneck  14.8657999 11.98449993 2.273030043
head  4.911139965 5.702600002 2.141690016
162
root  16.5785782 39.74044379 -8.252599671 -1.957509756 -62.93529892 5.260499954
lfemur  -19.43299675 -6.768649578 -3.414510965
ltibia  -1.491570742e-006 -8.364404493e-007 45.05259323
lfoot  5.521815751e-007 -11.68389893 3.173350334
ltoes  -4.250644065 -19.5611806 -102.515957
rfemur  -10.55599594 13.3586998 3.858449221
rtibia  -8.727266732e-007 2.533748784e-007 48.56719208
rfoot  -2.316020982e-006 -20.7525959 -11.72779942
rtoes  5.373923086 19.29304026 -105.8922705
lowerback  6.313600063 3.296060085 2.118760109
upperback  2.446259975 4.467130184 -0.5386350155
thorax  -0.8038759828 2.230530024 -2.037179947
rclavicle  0 -9.442270133e-015 7.951389973e-016
rhumerus  9.390298843 21.60300064 -75.89369965
rradius  -7.782816926e-012 0.001642658608 142.022995
rwrist  0.002739921212 0.003270594636 -16.87280083
rthumb  -92.93752616 -24.25625642 -97.11982154
rhand  -7.920061211e-032 -33.2840004 9.303460121
rfingers  -90 -7.125020027 -90
lclavicle  0 -9.442270133e-015 7.951389973e-016
lhumerus  13.31970024 -0.2108298242 64.90450287
lradius  1.032089778e-011 0.005718162749 145.5590057
lwrist  1.816137865e-011 1.409039812e-011 6.510980129
lthumb  89.89689403 5.08795885 91.16245106
lhand  -1.496451383e-031 -27.76390076 20.11240005
lfingers  90 7.125020027 -90
lowerneck  -5.670390129 8.765210152 -4.915259838
upperneck  14.34319973 12.0333004 2.027960062
head  4.822899818 5.729199886 2.062079906
163
root  16.62362166 39.72755492 -8.437733387 -1.58904016 -62.96620178 4.80340004
lfemur  -19.78429604 -5.703460217 -3.856244087
ltibia  -1.491570742e-006 -8.364404493e-007 47.01678848
lfoot  5.521815751e-007 -11.42959023 3.118479967
ltoes  -4.250644065 -19.5611806 -102.515957
rfemur  -10.28419304 13.16530037 4.517629147
rtibia  -8.727266732e-007 2.533748784e-007 49.19688416
rfoot  -2.316020982e-006 -19.58679199 -12.66269779
rtoes  5.373923086 19.29304026 -105.8922705
lowerback  6.567329884 3.139070034 2.347539902
upperback  2.522959948 4.275819778 -0.4109309912
thorax  -0.8677650094 2.13406992 -2.034749985
rclavicle  0 -9.442270133e-015 7.951389973e-016
rhumerus  9.663700104 21.44630051 -75.36540222
rradius  -7.782816926e-012 0.001642658608 142.0659943
rwrist  0.002739921212 0.003270594636 -16.79840088
rthumb  -92.93752616 -24.25625642 -97.11982154
rhand  -7.920061211e-032 -33.2840004 9.303460121
rfingers  -90 -7.125020027 -90
lclavicle  0 -9.442270133e-015 7.951389973e-016
lhumerus  13.47680092 -0.5112808347 64.68250275
lradius  1.032090125e-011 0.005718162749 145.3910065
lwrist  1.816137865e-011 1.409039812e-011 6.414130211
lthumb  89.89689403 5.08795885 91.16245106
lhand  -1.496451383e-031 -27.76390076 20.11240005
lfingers  90 7.125020027 -90
lowerneck  -5.888519764 8.768320084 -4.674059868
upperneck  14.04269981 12.05060101 1.82825017
head  4.79365015 5.745910168 1.969110012
164
root  16.65208922 39.69222241 -8.612466797 -1.581259966 -62.99670029 4.642690182
lfemur  -19.94080544 -4.634700298 -4.493747711
ltibia  -1.491570742e-006 -8.364404493e-007 48.88860703
lfoot  5.521815751e-007 -10.96920109 2.672060013
ltoes  -4.250644065 -19.5611806 -102.515957
rfemur  -9.813082695 13.05820084 5.044028282
rtibia  -8.727266732e-007 2.533748784e-007 49.6298027
rfoot  -2.316020982e-006 -17.88339996 -12.895401
rtoes  5.373923086 19.29304026 -105.8922705
lowerback  6.978350163 2.997839928 2.277489901
upperback  2.485229969 4.09487009 -0.2319709957
thorax  -1.161999941 2.037019968 -1.827329993
rclavicle  0 -9.442270133e-015 7.951389973e-016
rhumerus  9.59125042 21.46649933 -74.876297
rradius  -7.782816926e-012 0.001642658608 142.0099945
rwrist  0.002739921212 0.003270594636 -16.29490089
rthumb  -92.93752616 -24.25625642 -97.11982154
rhand  -7.920061211e-032 -33.2840004 9.303460121
rfingers  -90 -7.125020027 -90
lclavicle  0 -9.442270133e-015 7.951389973e-016
lhumerus  13.13099957 -1.408909917 64.61129761
lradius  1.032089865e-011 0.005718162749 145.5720062
lwrist  1.816137865e-011 1.409039812e-011 5.905900002
lthumb  89.89689403 5.08795885 91.16245106
lhand  -1.496451383e-031 -27.76390076 20.11240005
lfingers  90 7.125020027 -90
lowerneck  -6.039070129 8.78647995 -4.501420021
upperneck  13.99180031 12.07419968 1.766490102
head  4.816629887 5.763700008 1.93276
